<?xml version="1.0" encoding="utf-8"?>
<!-- Generator: Adobe Illustrator 16.0.0, SVG Export Plug-In . SVG Version: 6.00 Build 0)  -->
<!DOCTYPE svg PUBLIC "-//W3C//DTD SVG 1.1//EN" "http://www.w3.org/Graphics/SVG/1.1/DTD/svg11.dtd">
<svg version="1.1" id="图层_3" xmlns="http://www.w3.org/2000/svg" xmlns:xlink="http://www.w3.org/1999/xlink" x="0px" y="0px"
	 width="192px" height="192px" viewBox="0 0 192 192" enable-background="new 0 0 192 192" xml:space="preserve">
<path fill="#4285F4" d="M158.222,20H33.837C26.196,20,20,24.562,20,30.188v50.901c0,5.627,6.196,10.188,13.837,10.188H158.26
	c7.643,0,13.838-4.561,13.838-10.188V30.188C172.061,24.562,165.863,20,158.222,20z M76.491,68.545c5.931,0,6.006-4.6,6.083-5.512
	h6.348c-0.19,2.167-1.33,10.72-12.43,10.72c-3.764,0-12.735-1.862-12.735-14.826v-2.053c0-5.094,2.053-14.864,12.849-14.864
	c11.176,0,12.24,9.352,12.393,10.911H82.65c-0.077-0.912,0.075-5.702-6.007-5.702c-5.969,0-6.386,6.31-6.386,9.617v2.091
	C70.18,68.658,74.818,68.545,76.491,68.545z M104.203,73.22c-0.533,0.153-1.824,0.57-3.724,0.57c-6.807,0-6.579-5.777-6.579-6.766
	V54.897h-3.345v-4.486h3.345v-5.626h6.122v5.665h3.953v4.486h-3.953v11.442c0,1.558,0.38,2.356,2.395,2.356
	c0.342,0,1.559-0.113,1.786-0.152V73.22z M120.284,56.114c-0.723-0.076-1.482-0.152-2.206-0.152c-3.345,0-4.22,1.597-4.561,2.357
	v15.015h-6.12v-22.96h5.776l0.192,2.737c0.569-0.988,2.09-3.155,5.093-3.155c0.532,0,1.711,0.229,1.901,0.267L120.284,56.114z
	 M129.675,73.334h-6.159V40.757h6.159V73.334z"/>
<path fill="#34A853" d="M81.052,100.782h-50.75c-6.881,0-10.302,3.42-10.302,10.227v50.786c0,6.844,3.421,10.265,10.302,10.265
	H81.09c6.805,0,10.226-3.421,10.226-10.302v-50.749C91.278,104.202,87.857,100.782,81.052,100.782z M66.568,154.002
	c-3.269,2.89-7.488,4.373-12.658,4.373c-5.969,0-10.683-1.863-14.18-5.627c-3.649-3.991-5.474-9.618-5.474-16.878
	c0-7.223,1.901-12.887,5.702-16.956c3.536-3.8,8.21-5.702,14.027-5.702c5.855,0,10.53,1.747,14.028,5.21
	c3.002,2.964,4.523,6.271,4.523,9.959h-8.934c-0.571-2.168-1.331-3.726-2.205-4.677c-1.635-1.862-4.068-2.774-7.3-2.774
	c-2.737,0-5.056,0.988-6.956,2.928c-2.472,2.584-3.727,6.614-3.727,12.051c0,4.219,0.837,7.64,2.472,10.225
	c1.9,2.966,4.637,4.447,8.25,4.447c2.471,0,4.524-0.683,6.196-2.052c1.634-1.369,2.738-3.346,3.308-5.931h8.933
	C71.549,147.463,69.572,151.266,66.568,154.002z"/>
<path fill="#EA4335" d="M161.53,100.401h-50.788c-6.88,0-10.302,3.421-10.302,10.227v50.787c0,6.882,3.422,10.303,10.302,10.303
	h50.788c6.805,0,10.226-3.421,10.226-10.303v-50.787C171.756,103.822,168.335,100.401,161.53,100.401z M141.801,158.336h-10.111
	l-16.766-42.425h10.263l11.861,31.399l11.481-31.399h10.035L141.801,158.336z"/>
</svg>
