<?xml version="1.0" standalone="no"?><!DOCTYPE svg PUBLIC "-//W3C//DTD SVG 1.1//EN" "http://www.w3.org/Graphics/SVG/1.1/DTD/svg11.dtd"><svg t="1520058841376" class="icon" style="" viewBox="0 0 1024 1024" version="1.1" xmlns="http://www.w3.org/2000/svg" p-id="1222" xmlns:xlink="http://www.w3.org/1999/xlink" width="200" height="200"><defs><style type="text/css"></style></defs><path d="M257.08285523 200.98809306h509.83428954v648.88000488H257.08285523z" fill="#CFAA93" p-id="1223"></path><path d="M315.01856995 293.68523662v486.66000366h278.09143066l115.87142944-115.87142944V293.68523662z" fill="#EDF2F9" p-id="1224"></path><path d="M593.11000061 664.47381084v115.87142944l115.87142944-115.87142944z" fill="#D0D6DF" p-id="1225"></path><path d="M326.60571289 791.93238323h266.50428772l0.23174286-0.09269715a11.22794151 11.22794151 0 0 0 7.48529434-3.2096386l116.43919945-116.43919944a11.17000581 11.17000581 0 0 0 3.23281288-7.58957863L720.568573 664.47381084V305.27237956a23.17428589 23.17428589 0 0 0-23.17428589-23.17428589H326.60571289a23.17428589 23.17428589 0 0 0-23.17428589 23.17428589v463.48571778a23.17428589 23.17428589 0 0 0 23.17428589 23.17428589z m278.09143067-39.1761303V676.06095378h76.69529915L604.69714356 752.75625293zM326.60571289 305.27237956h370.78857422v347.61428833H581.52285766v115.87142945H326.60571289V305.27237956z m57.93571472 104.2842865h254.91714478a11.58714294 11.58714294 0 1 0 0-23.17428589H384.54142761a11.58714294 11.58714294 0 1 0 0 23.17428589z m0 69.52285767h254.91714478a11.58714294 11.58714294 0 1 0 0-23.17428589H384.54142761a11.58714294 11.58714294 0 1 0 0 23.17428589z m0 69.52285766h254.91714478a11.58714294 11.58714294 0 1 0 0-23.17428589H384.54142761a11.58714294 11.58714294 0 1 0 0 23.17428589z m127.45857239 46.34857178H384.54142761a11.58714294 11.58714294 0 1 0 0 23.17428589h127.45857239a11.58714294 11.58714294 0 1 0 0-23.17428589zM755.33000183 189.40095011H268.66999817a23.17428589 23.17428589 0 0 0-23.17428589 23.1742859v625.70571899a23.17428589 23.17428589 0 0 0 23.17428589 23.17428589h486.66000366a23.17428589 23.17428589 0 0 0 23.17428589-23.17428589V212.575236a23.17428589 23.17428589 0 0 0-23.17428589-23.17428589z m0 648.88000489H268.66999817V212.575236h486.66000366v625.705719z" fill="#2B3139" p-id="1226"></path><path d="M627.87142945 247.33666484h-57.93571473V189.40095011c0-32.00368882-25.9320259-57.93571472-57.93571472-57.93571472s-57.93571472 25.9320259-57.93571472 57.93571472v57.93571473h-57.93571473a34.76142883 34.76142883 0 0 0-34.76142883 34.76142883v46.34857178h301.26571656v-46.34857178a34.76142883 34.76142883 0 0 0-34.76142883-34.76142883z" fill="#C8E8FA" p-id="1227"></path><path d="M627.87142945 235.7495219h-46.34857179V189.40095011a69.52285766 69.52285766 0 0 0-139.04571532 0v46.34857179h-46.34857179a46.34857177 46.34857177 0 0 0-46.34857177 46.34857177v57.93571472h324.44000244v-57.93571472a46.34857177 46.34857177 0 0 0-46.34857177-46.34857177z m23.17428588 57.93571472v23.17428588H372.95428467v-34.76142883a23.17428589 23.17428589 0 0 1 23.17428588-23.17428588h69.52285768V189.40095011a46.34857177 46.34857177 0 0 1 92.69714355 0v69.52285768h69.52285767a23.17428589 23.17428589 0 0 1 23.17428588 23.17428588v11.58714295zM512 166.22666423a23.17428589 23.17428589 0 1 0 0.01158714 46.36015892A23.17428589 23.17428589 0 0 0 512 166.22666423z" fill="#2B3139" p-id="1228"></path></svg>